<svg id="Camada_1" data-name="Camada 1" xmlns="http://www.w3.org/2000/svg" viewBox="0 0 775.45 117.86"><defs><style>.cls-1{fill:#fefefe;}.cls-2{fill:#c7783e;}</style></defs><title>logo-white</title><g id="Camada_1-2" data-name="Camada_1"><path class="cls-1" d="M90.94,280.74h39.94V268.92H90.94v-5.78c0-7.65,5.47-11.23,12.53-11.23h27.41V238.71H86c-15.34,0-22.56,15-22.56,32.94v39.09H90.94Zm70.44,12.61h13.95l6.43,17.4h13.86l-20-54.34q-2.76-7.4-7.82-7.4H137.85v61.74h23.53Zm0-10.32V260.16h1.42L171.44,283Zm63.84,27.72H201.66V249h23.56Zm25.51-27.33L231,310.76h15.19l11.06-15.17,8.36,15.17h23.53l-18.74-33.59L290.75,249H275.92l-12.36,16.81L255.17,249H231.62ZM319,293.36h13.95l6.41,17.4h13.89l-20-54.34q-2.76-7.4-7.82-7.4H295.46v61.74H319ZM319,283V260.16h1.39L329,283Zm121.52-2.3H420.32v16.78h12.53c6.15,0,10.32-3.66,11.23-11.23C444.5,282.64,442.89,280.74,440.5,280.74Zm0-11.82c2.38,0,4-2,3.57-5.78-.91-7.6-5.07-11.23-11.23-11.23H420.32v17ZM455,274.37c4.2,5.22,3.91,13.1,2.47,19.84q-5.66,16.41-20,16.53H392.85v-72h44.9c9.35,0,16.38,5.24,19.76,16.53C459.33,261.35,459.35,269.74,455,274.37Zm51,.57c2.21,0,3.32-1.3,3.32-3.94v-3.94c0-4.71-4.37-6.69-9.61-6.69H489v14.57ZM503.94,249c8.11,0,12.22,1.5,15.85,8.31s6.15,27.72-5.36,27.72l8.65,25.71H499.55l-9-25.71H489v25.71H465.45V249Zm48.81,44.33h13.92l6.43,17.4H587l-20-54.34q-2.72-7.4-7.82-7.4H529.2v61.74h23.56Zm0-10.32V260.16h1.39L562.79,283Zm84.56,3.63L616.56,249H593v61.74H606.5V273.91l20.64,36.85h23.67V249H637.31Zm77.3,13H690.43c-3.34,0-5.87-1-7.51-2.83a11.73,11.73,0,0,1-2.55-7.71V270q1.66-9.61,10.77-9.61h23.47V249H676.23q-12,0-17,14.17a52.58,52.58,0,0,0-2.41,14.06v11.85a36.76,36.76,0,0,0,2,10.83q3.83,10.84,16.87,10.83h38.95Zm29.59-6.29h13.92l6.43,17.4h13.86l-20-54.34q-2.72-7.4-7.82-7.4H720.65v61.74h23.56Zm0-10.32V260.16h1.39L754.24,283Z" transform="translate(-33.22 -238.71)"/><path class="cls-2" d="M469.59,317.59c170.16,1,306.82,7,339.08,14.74-79.63-3.57-195.36-6-326.83-6.63-9.35,3-33.08,5.1-60.89,5.1s-51.53-2.13-60.89-5.1c-131.47.6-247.21,3.06-326.83,6.63,32.26-7.74,168.92-13.78,339.08-14.74,11.93-1.64,29.31-2.66,48.64-2.66S457.65,315.95,469.59,317.59Z" transform="translate(-33.22 -238.71)"/><path class="cls-1" d="M241.51,356.57h-4.56v-14.8h-6.69v-3.12h18v3.12h-6.72Zm33.82-18v3.12h-7.2a5.54,5.54,0,0,0-3.63,1.08,3.77,3.77,0,0,0-1.3,3.12h12.13v3.15H263.2a4.14,4.14,0,0,0,1,3.15,3.59,3.59,0,0,0,1.79,1.08,11.13,11.13,0,0,0,2.18.17h7.2v3.12H268a16.4,16.4,0,0,1-3.57-.31,8.65,8.65,0,0,1-2.92-1.25,7.22,7.22,0,0,1-2.52-3.15,10.59,10.59,0,0,1-.74-3.94l.06-1.08a8.49,8.49,0,0,1,.23-1.9,11.64,11.64,0,0,1,.6-1.76,7,7,0,0,1,.79-1.45,8.75,8.75,0,0,1,1.36-1.39,5.36,5.36,0,0,1,2.18-1.13,13.6,13.6,0,0,1,2.41-.51,19.42,19.42,0,0,1,2.24-.11Zm17.43,18h-4.39v-18h10.77c.54,0,1.11,0,1.67.09a13.79,13.79,0,0,1,1.93.28,4.38,4.38,0,0,1,2,1,5.18,5.18,0,0,1,1.36,1.81,6.75,6.75,0,0,1,.37,2.24,6.17,6.17,0,0,1-.43,2.32,4.87,4.87,0,0,1-1.39,1.73,6,6,0,0,1-2.35,1l5.13,7.51h-4.9l-4.62-7h-5.13Zm5.36-14.74h-5.36v4.54h5.36a12.9,12.9,0,0,0,2-.11,2.84,2.84,0,0,0,1.42-.65,2.08,2.08,0,0,0,.51-1.53,1.74,1.74,0,0,0-1-1.84A7.86,7.86,0,0,0,298.12,341.83Zm25.6,14.74h-4.39v-18h10.77c.54,0,1.11,0,1.67.09a13.79,13.79,0,0,1,1.93.28,4.38,4.38,0,0,1,2,1,5.18,5.18,0,0,1,1.36,1.81,6.75,6.75,0,0,1,.37,2.24,6.17,6.17,0,0,1-.43,2.32,4.87,4.87,0,0,1-1.39,1.73,6,6,0,0,1-2.35,1l5.13,7.51h-4.9l-4.62-7h-5.13Zm5.36-14.74h-5.36v4.54h5.36a12.9,12.9,0,0,0,2-.11,2.84,2.84,0,0,0,1.42-.65,2.08,2.08,0,0,0,.51-1.53,1.74,1.74,0,0,0-1-1.84A7.86,7.86,0,0,0,329.07,341.83Zm23,14.74h-4.65l8.76-18h4.65l8.9,18H364.9l-1.9-4.28h-9.1Zm3.2-7.48h6.26l-3.17-6.86Zm34.58-7.26h-5.07v5.27h5.33c2.64,0,4-.88,4-2.64a2.06,2.06,0,0,0-1.13-2.1A7,7,0,0,0,389.91,341.83Zm-5.07,14.74h-4.37v-18H390a30.86,30.86,0,0,1,3.6.17,6.28,6.28,0,0,1,2.52.77,4.51,4.51,0,0,1,2.18,2,6.12,6.12,0,0,1,.74,2.92,6.25,6.25,0,0,1-.57,2.61,4.52,4.52,0,0,1-1.62,1.93,6.13,6.13,0,0,1-1.9.88c-.54.14-1,.23-1.33.28a5.54,5.54,0,0,1-1,.09h-7.8Zm40.2-3v3h-6.26c-.82,0-1.53,0-2.18-.09a9.12,9.12,0,0,1-2-.54,6.25,6.25,0,0,1-1.93-1.16,5,5,0,0,1-1.25-1.62,7.71,7.71,0,0,1-.54-1.84,15.64,15.64,0,0,1-.14-2V338.6H415v11a12.43,12.43,0,0,0,.09,1.25,3.27,3.27,0,0,0,.6,1.45,2.65,2.65,0,0,0,1.45,1,9.58,9.58,0,0,0,2.64.31Zm13.32,3h-4.62l8.76-18h4.65l8.9,18h-4.88l-1.93-4.28h-9.07Zm3.23-7.48h6.24l-3.15-6.86Zm29.62,7.48H466.7v-18h5.58l8.5,13-.17-13H485v18h-5L471,343Zm29.06,0h-4.62l8.76-18H509l8.9,18h-4.88l-1.93-4.28h-9.07Zm3.23-7.48h6.24l-3.15-6.86ZM542,353.31v-4.22h-5.81v-3.17h10.29v10.66H535.41c-.37,0-.68-.09-.94-.11a5.62,5.62,0,0,1-.88-.14c-.34-.09-.79-.2-1.36-.4a7.48,7.48,0,0,1-2.18-1.25,6.5,6.5,0,0,1-2.07-2.81,10.59,10.59,0,0,1-.74-3.94v-1.08a7.45,7.45,0,0,1,.37-2.44,10,10,0,0,1,.91-2.1,7.12,7.12,0,0,1,1.39-1.64,8.7,8.7,0,0,1,2.35-1.39,12.6,12.6,0,0,1,4.79-.68h9.41v3.12h-9.41a5,5,0,0,0-3,.77,4,4,0,0,0-1.5,2.07,8.48,8.48,0,0,0-.45,2.89v.28a7,7,0,0,0,1,4.11c.68,1,2,1.47,3.88,1.47Zm33.11-14.71v3.12h-7.2a5.54,5.54,0,0,0-3.63,1.08,3.77,3.77,0,0,0-1.3,3.12h12.13v3.15H563a4.14,4.14,0,0,0,1,3.15,3.59,3.59,0,0,0,1.79,1.08,11.13,11.13,0,0,0,2.18.17h7.2v3.12h-7.37a16,16,0,0,1-3.54-.31,8.78,8.78,0,0,1-2.95-1.25,7.42,7.42,0,0,1-2.52-3.15,10.59,10.59,0,0,1-.74-3.94l.06-1.08a8.49,8.49,0,0,1,.23-1.9,16,16,0,0,1,.6-1.76,8.71,8.71,0,0,1,.79-1.45,8,8,0,0,1,1.39-1.39,5.08,5.08,0,0,1,2.15-1.13,14.15,14.15,0,0,1,2.41-.51,19.75,19.75,0,0,1,2.24-.11Zm17.55,18h-4.51v-18h6.49l5.27,13.78,5.3-13.78h6.43v18h-4.34l.34-14-5.3,14h-4.68l-5.47-14.09Z" transform="translate(-33.22 -238.71)"/></g></svg>